<?xml version="1.0" encoding="utf-8"?>
<!-- Generator: Adobe Illustrator 22.0.1, SVG Export Plug-In . SVG Version: 6.00 Build 0)  -->
<svg version="1.1"
	 id="svg2" inkscape:version="0.91 r13725" sodipodi:docname="Apple_1998.svg" xmlns:cc="http://creativecommons.org/ns#" xmlns:dc="http://purl.org/dc/elements/1.1/" xmlns:inkscape="http://www.inkscape.org/namespaces/inkscape" xmlns:rdf="http://www.w3.org/1999/02/22-rdf-syntax-ns#" xmlns:sodipodi="http://sodipodi.sourceforge.net/DTD/sodipodi-0.dtd" xmlns:svg="http://www.w3.org/2000/svg"
	 xmlns="http://www.w3.org/2000/svg" xmlns:xlink="http://www.w3.org/1999/xlink" x="0px" y="0px" viewBox="0 0 132.2 157"
	 style="enable-background:new 0 0 132.2 157;" xml:space="preserve">
<style type="text/css">
	.st0{fill:#FFFFFF;}
</style>
<sodipodi:namedview  bordercolor="#666666" borderopacity="1" gridtolerance="10" guidetolerance="10" id="namedview6" inkscape:current-layer="svg2" inkscape:cx="-1066.5045" inkscape:cy="964.94669" inkscape:pageopacity="0" inkscape:pageshadow="2" inkscape:window-height="705" inkscape:window-maximized="1" inkscape:window-width="1366" inkscape:window-x="-8" inkscape:window-y="-8" inkscape:zoom="0.1767767" objecttolerance="10" pagecolor="#ffffff" showgrid="false">
	</sodipodi:namedview>
<path id="path4" inkscape:connector-curvature="0" class="st0" d="M129.5,122.3c-2.4,5.5-5.2,10.5-8.4,15.2
	c-4.4,6.3-8.1,10.7-10.9,13.1c-4.3,4-9,6-14,6.2c-3.6,0-7.9-1-12.9-3.1c-5-2.1-9.7-3.1-13.9-3.1c-4.4,0-9.2,1-14.3,3.1
	c-5.1,2.1-9.2,3.1-12.3,3.2c-4.8,0.2-9.5-1.9-14.3-6.3c-3-2.6-6.8-7.2-11.4-13.6c-4.9-6.9-8.9-14.8-12-23.9c-3.4-9.8-5-19.3-5-28.5
	c0-10.5,2.3-19.6,6.8-27.2c3.6-6.1,8.3-10.9,14.3-14.5c6-3.5,12.4-5.3,19.3-5.5c3.8,0,8.8,1.2,15,3.5c6.2,2.3,10.1,3.5,11.9,3.5
	c1.3,0,5.7-1.4,13.1-4.1c7-2.5,13-3.6,17.9-3.2c13.2,1.1,23.1,6.3,29.7,15.7c-11.8,7.2-17.7,17.2-17.5,30c0.1,10,3.7,18.4,10.9,25
	c3.2,3.1,6.9,5.4,10.9,7.1C131.4,117.6,130.4,120,129.5,122.3L129.5,122.3z M99.2,3.1c0,7.9-2.9,15.2-8.6,22
	c-6.9,8.1-15.2,12.7-24.3,12c-0.1-0.9-0.2-1.9-0.2-3c0-7.5,3.3-15.6,9.1-22.2c2.9-3.3,6.6-6.1,11.1-8.3C90.8,1.4,95,0.2,99,0
	C99.1,1,99.2,2.1,99.2,3.1L99.2,3.1z"/>
</svg>
