<?xml version="1.0" encoding="utf-8"?>
<!-- Generator: Adobe Illustrator 22.0.1, SVG Export Plug-In . SVG Version: 6.00 Build 0)  -->
<svg version="1.1"
	 id="svg2" inkscape:version="0.91 r13725" sodipodi:docname="Apple_1998.svg" xmlns:cc="http://creativecommons.org/ns#" xmlns:dc="http://purl.org/dc/elements/1.1/" xmlns:inkscape="http://www.inkscape.org/namespaces/inkscape" xmlns:rdf="http://www.w3.org/1999/02/22-rdf-syntax-ns#" xmlns:sodipodi="http://sodipodi.sourceforge.net/DTD/sodipodi-0.dtd" xmlns:svg="http://www.w3.org/2000/svg"
	 xmlns="http://www.w3.org/2000/svg" xmlns:xlink="http://www.w3.org/1999/xlink" x="0px" y="0px" viewBox="0 0 154.7 157"
	 style="enable-background:new 0 0 154.7 157;" xml:space="preserve">
<style type="text/css">
	.st0{filter:url(#Adobe_OpacityMaskFilter);}
	.st1{fill:#FFFFFF;}
	.st2{mask:url(#j2ooarv05d_2_);fill:#FFC40C;}
</style>
<sodipodi:namedview  bordercolor="#666666" borderopacity="1" gridtolerance="10" guidetolerance="10" id="namedview6" inkscape:current-layer="svg2" inkscape:cx="-1066.5045" inkscape:cy="964.94669" inkscape:pageopacity="0" inkscape:pageshadow="2" inkscape:window-height="705" inkscape:window-maximized="1" inkscape:window-width="1366" inkscape:window-x="-8" inkscape:window-y="-8" inkscape:zoom="0.1767767" objecttolerance="10" pagecolor="#ffffff" showgrid="false">
	</sodipodi:namedview>
<defs>
	<filter id="Adobe_OpacityMaskFilter" filterUnits="userSpaceOnUse" x="0" y="0" width="154.7" height="157">
		<feColorMatrix  type="matrix" values="1 0 0 0 0  0 1 0 0 0  0 0 1 0 0  0 0 0 1 0"/>
	</filter>
</defs>
<mask maskUnits="userSpaceOnUse" x="0" y="0" width="154.7" height="157" id="j2ooarv05d_2_">
	<g class="st0">
		<path id="ie2nnsj09c_2_" class="st1" d="M0,0h154.7v157H0V0z"/>
	</g>
</mask>
<path class="st2" d="M142.6,36.7c-5.8-9.1-12.7-16.5-20.9-22.3c-8.1-5.8-17.5-9.9-27.9-12.3c-17.2-4-33.8-2.2-49.9,5
	c-8.9,4-16.7,9.5-23.5,16.4C11.9,32.2,5.8,42.1,2.1,53.1L2,53.4c-0.1,0.4-0.2,0.8-0.4,1.2C-2.2,67.3,1.3,74.4,7,68.5
	c0.2-0.3,0.4-0.5,0.7-0.8c0.1-0.1,0.2-0.2,0.3-0.3c6.6-8.3,17-15.1,17-15.1l0,0c2.7-1.9,5.4-3.6,8.3-5.2c3.3-1.9,6.7-3.7,9.9-4.9
	c0,0,3-1.4,3.8-5.5l0-0.2c0,0,0-0.1,0-0.1c0.5-3.4,4.2-12.9,14.7-13.5c3.3-0.5,6.5,0.1,9.4,1.5c5,2.4,8.9,7.2,9.7,13
	c0.6,4.6-0.5,8.9-2.8,12.4c-0.1,0.2-0.3,0.4-0.4,0.6l-0.1,0.2c-2,2.5-4.7,4.5-7.9,5.6c-1.9,0.7-3.9,1.1-5.7,1.1h0
	c-1.2,0.2-2.5,0-3.8-0.3c-1.5-0.3-2.8-0.8-4-1.4c-2-0.9-3.7-2-4.3-2.6c-0.5-0.4-1-0.7-1.5-0.8c-1.1-0.2-2,0-2.7,0.3l0,0
	c-0.4,0.2-0.6,0.3-0.9,0.5c-2.5,2.1-4.9,4.3-7.1,6.6c-5.9,6.2-10.9,13.3-13.2,16.8c-1.2,2-2.4,4-3.5,6.1c-1,1.9-2,3.9-2.9,5.9
	c-1.4,3.1-2.7,6.5-3.9,10.1l-0.2,0.5l-0.2,0.7l-0.2,0.7c-7.2,24.6,5.8,38.8,16.6,24c0.6-0.9,1.2-1.9,1.8-2.8l0,0
	c11.4-19.7,34.7-33.9,34.7-33.9h0c1.4-0.9,2.9-1.8,4.3-2.6l0,0l0.3-0.2c4-2.3,8.1-4.3,12.3-6.1c3.8-1.7,7.8-3.2,11.1-4
	c0,0,3.9-1,4.9-5.8l0,0c0.7-3.4,3.2-8.4,8.8-11.1c1.3-0.7,2.7-1.2,4.1-1.5c1.5-0.3,3-0.5,4.5-0.4l0,0c1,0,1.8,0.1,2.4,0.3
	c7.1,1.4,13,7.2,13.8,14.9c1,9.3-5.5,17.8-14.7,18.9c-4.6,0.6-8.8-0.4-12.4-3.1c-4-1.7-7.1-0.6-8.2-0.1c-3.5,1.9-6.9,4-10.1,6.3
	c-6,4.4-10.7,9.1-12.6,11c-4.1,4.3-7.8,8.8-11,13.6l-0.5,0.8l-0.1,0.2c-3.3,5.2-6.7,11.9-9.6,19.9c-0.2,0.6-0.4,1.2-0.6,1.9
	c-3.1,10.3,3.6,14.5,11.2,16c0,0,6,1.2,14.7,0.5c0.5,0,1-0.1,1.3-0.1c2.2-0.3,4.4-0.5,6.5-0.9c14.9-2.5,28.1-8.8,39.4-18.9
	c14.2-12.7,22.7-28.6,25.4-47.5C156.5,70.5,152.8,52.8,142.6,36.7"/>
</svg>
