<?xml version="1.0" encoding="utf-8"?>
<!-- Generator: Adobe Illustrator 22.0.1, SVG Export Plug-In . SVG Version: 6.00 Build 0)  -->
<svg version="1.1"
	 id="svg2" inkscape:version="0.91 r13725" sodipodi:docname="Apple_1998.svg" xmlns:cc="http://creativecommons.org/ns#" xmlns:dc="http://purl.org/dc/elements/1.1/" xmlns:inkscape="http://www.inkscape.org/namespaces/inkscape" xmlns:rdf="http://www.w3.org/1999/02/22-rdf-syntax-ns#" xmlns:sodipodi="http://sodipodi.sourceforge.net/DTD/sodipodi-0.dtd" xmlns:svg="http://www.w3.org/2000/svg"
	 xmlns="http://www.w3.org/2000/svg" xmlns:xlink="http://www.w3.org/1999/xlink" x="0px" y="0px" viewBox="0 0 86.4 157"
	 style="enable-background:new 0 0 86.4 157;" xml:space="preserve">
<style type="text/css">
	.st0{fill:#E30913;}
	.st1{fill:#AF050F;}
</style>
<sodipodi:namedview  bordercolor="#666666" borderopacity="1" gridtolerance="10" guidetolerance="10" id="namedview6" inkscape:current-layer="svg2" inkscape:cx="-1066.5045" inkscape:cy="964.94669" inkscape:pageopacity="0" inkscape:pageshadow="2" inkscape:window-height="705" inkscape:window-maximized="1" inkscape:window-width="1366" inkscape:window-x="-8" inkscape:window-y="-8" inkscape:zoom="0.1767767" objecttolerance="10" pagecolor="#ffffff" showgrid="false">
	</sodipodi:namedview>
<g>
	<path class="st0" d="M31,0.7c1.4,3.2,2.4,6.5,3.6,9.8c1.7,4.7,3.3,9.4,5,14.1c1.8,5.2,3.7,10.5,5.5,15.7c1.7,4.7,3.4,9.4,5,14.1
		c1.5,4.3,3,8.6,4.5,12.9c0.2,0.4,0.5,0.8,0.5,1.3c0,0.2,0,0.4,0.1,0.6c2.8,7.9,5.7,15.8,8.5,23.7c3.9,11,7.8,22,11.7,33
		c3.5,9.9,7,19.7,10.6,29.6c0.2,0.5,0.4,0.9-0.2,1.2c-3.6-0.4-7.3-0.7-10.9-1.1c-2.9-0.3-5.8-0.7-8.7-0.8c-3.6-0.2-7.1-0.6-10.7-0.5
		c-0.7,0-1-0.3-1.2-0.9c-2.5-7.1-5.1-14.3-7.6-21.4c-2-5.6-3.9-11.2-5.9-16.8c-1.8-5.2-3.7-10.3-5.5-15.5c-1.3-3.7-2.6-7.5-4-11.3
		c-0.1-0.1,0-0.3-0.1-0.5c-1.7-4.8-3.4-9.6-5.1-14.5c-3.5-9.8-6.9-19.6-10.3-29.3c-2.5-7.1-5-14.2-7.6-21.3
		C5.6,15.9,3.1,8.8,0.6,1.7C0.1,0.5,0.2,0.3,1.6,0.3c9.3,0,18.6,0,27.9,0C30.1,0.3,30.6,0.3,31,0.7z"/>
	<path class="st1" d="M85.7,156.9c0.6-0.3,0.4-0.8,0.2-1.2c-3.5-9.9-7.1-19.7-10.6-29.6c-3.9-11-7.8-22-11.7-33
		c-2.8-7.9-5.7-15.8-8.5-23.7c-0.1-0.2-0.1-0.4-0.1-0.6c0.3,0.2,0.4,0,0.5-0.3c0-0.9,0.2-1.9,0.1-2.8c-0.1-1.2-0.1-2.4-0.1-3.6
		c0-20.1,0-40.3-0.1-60.4c0-1.6,0-1.6,1.6-1.6c9.2,0,18.3,0,27.5,0c1.8,0,1.8,0,1.8,1.8c0,49.7,0,99.5,0,149.2c0,1.7,0,3.3,0,5
		C86.4,156.7,86.4,157.2,85.7,156.9z"/>
	<path class="st1" d="M31,0.7c-0.4-0.4-0.9-0.4-1.4-0.4c-9.3,0-18.6,0-27.9,0c-1.4,0-1.5,0.2-1.1,1.4C3.1,8.8,5.6,15.9,8.2,23
		c2.5,7.1,5.1,14.2,7.6,21.3c3.5,9.8,6.9,19.6,10.3,29.3c1.7,4.8,3.4,9.7,5.1,14.5c-0.7,0.2-0.4,0.9-0.4,1.3c0,8.1,0,16.2,0,24.4
		c0,13.1,0,26.1,0,39.2c0,1.2-0.3,1.5-1.5,1.6c-6,0.3-11.9,0.7-17.8,1.3c-3.5,0.4-6.9,0.9-10.4,1.1C0.3,157,0,156.7,0,156
		c0-1.1,0-2.2,0-3.3C0,102.8,0,53,0,3.2C0,0,0,0,3.1,0c8.8,0,17.6,0,26.4,0C30.1,0,30.9-0.2,31,0.7z"/>
</g>
</svg>
