<?xml version="1.0" encoding="utf-8"?>
<!-- Generator: Adobe Illustrator 22.0.1, SVG Export Plug-In . SVG Version: 6.00 Build 0)  -->
<svg version="1.1"
	 id="svg2" inkscape:version="0.91 r13725" sodipodi:docname="Apple_1998.svg" xmlns:cc="http://creativecommons.org/ns#" xmlns:dc="http://purl.org/dc/elements/1.1/" xmlns:inkscape="http://www.inkscape.org/namespaces/inkscape" xmlns:rdf="http://www.w3.org/1999/02/22-rdf-syntax-ns#" xmlns:sodipodi="http://sodipodi.sourceforge.net/DTD/sodipodi-0.dtd" xmlns:svg="http://www.w3.org/2000/svg"
	 xmlns="http://www.w3.org/2000/svg" xmlns:xlink="http://www.w3.org/1999/xlink" x="0px" y="0px" viewBox="0 0 121.9 157"
	 style="enable-background:new 0 0 121.9 157;" xml:space="preserve">
<style type="text/css">
	.st0{fill:#FFFFFF;}
</style>
<sodipodi:namedview  bordercolor="#666666" borderopacity="1" gridtolerance="10" guidetolerance="10" id="namedview6" inkscape:current-layer="svg2" inkscape:cx="-1066.5045" inkscape:cy="964.94669" inkscape:pageopacity="0" inkscape:pageshadow="2" inkscape:window-height="705" inkscape:window-maximized="1" inkscape:window-width="1366" inkscape:window-x="-8" inkscape:window-y="-8" inkscape:zoom="0.1767767" objecttolerance="10" pagecolor="#ffffff" showgrid="false">
	</sodipodi:namedview>
<g>
	<path class="st0" d="M120.8,0c1.9,12.9,1.1,25.4-0.9,37.8c-3.5,20.6-13.6,38-26.5,53.9C88.1,98.2,83,104.9,78,111.6
		c-1,1.4-1.6,3.5-1.4,5.2c0.6,6.8,1.6,13.6,2.2,20.4c0.1,1.5-0.7,3.6-1.9,4.6c-5.1,4.7-10.6,9.1-15.8,13.7c-2.4,2.1-4.2,1.8-6.1-0.6
		c-2.1-2.8-4.3-5.5-6.6-8.1c-2.8-3.3-4.7-3.4-8.3-1.2c-2.8,1.8-5.2,4.9-9.3,3.4c-5.9-2.1-11.1-5.2-14.2-10.7
		c-0.9-1.6,0.1-4.5,0.6-6.7c1.1-5.5,0.6-6.6-4.8-8.1c-3.2-0.9-6.5-1.8-9.7-2.8c-2.3-0.7-3.3-2-2.4-4.7c2.2-6.6,4.1-13.3,6.4-19.9
		c0.6-1.6,2.4-3.4,4-4c6.2-2.2,12.6-3.7,18.9-5.8c1.9-0.7,4-2.3,5.1-4c8.3-13.7,15.5-28.1,24.6-41.2C73.5,20.5,94,8.1,117.7,0.5
		C118.5,0.2,119.4,0.2,120.8,0z M116.2,6.9c-1.1,0.2-1.6,0.2-2.1,0.3C93.5,15.1,74.7,26.1,63,45c-14.9,24.1-27.8,49.5-41.6,74.2
		c-1.2,2.1-0.3,3.3,1.1,4.7c6.4,6.1,13.7,10.9,21.8,14.4c2.6,1.1,4.1,0.8,5.8-1.4c14.1-17.8,28.3-35.5,42.5-53.3
		c10.7-13.4,18.4-28.3,21.6-45.3C116.1,28.1,117.2,17.8,116.2,6.9z M58.6,150.6c4.6-4,9.2-7.8,13.6-11.7c0.6-0.5,1.2-1.5,1.1-2.2
		c-0.5-5.3-1.2-10.6-2-16.8c-4.9,5.8-9.1,11-13.5,16.1C51.8,143.1,51.8,143.1,58.6,150.6z M6.1,115.7c9.2,4,9.2,4,13.3-4.1
		c0.7-1.4,1.4-2.8,2.1-4.1c2.5-4.9,5-9.7,7.9-15.4c-6.1,1.8-11.2,3.3-16.4,4.9c-0.6,0.2-1.3,0.9-1.5,1.5
		C9.6,104.2,7.8,110,6.1,115.7z M22.9,131.8c-1.6,5-0.5,7,5.1,10.1c4.8,2.6,5.7,2.5,8.6-1C32,137.9,27.4,134.9,22.9,131.8z"/>
	<path class="st0" d="M73.5,51.3c0-7.4,5.7-13.2,13.2-13.3c7.4,0,13.2,5.8,13.3,13.2c0,7-6,13.1-13,13.2
		C79.6,64.6,73.5,58.6,73.5,51.3z M94.5,51.3c0.1-4.3-3.5-8-7.7-8c-4.4,0-7.9,3.4-7.9,7.8c0,4.4,3.3,7.9,7.7,8
		C90.8,59.2,94.4,55.6,94.5,51.3z"/>
</g>
</svg>
